<?xml version="1.0" encoding="utf-8"?>
<!-- Generator: Adobe Illustrator 21.1.0, SVG Export Plug-In . SVG Version: 6.00 Build 0)  -->
<svg version="1.1" id="Capa_1" xmlns="http://www.w3.org/2000/svg" xmlns:xlink="http://www.w3.org/1999/xlink" x="0px" y="0px"
	 viewBox="0 0 235.3 235.3" style="enable-background:new 0 0 235.3 235.3;" xml:space="preserve">
<style type="text/css">
	.st0{fill:#FFFFFF;}
</style>
<g>
	<path class="st0" d="M229.1,161.6c-0.8-0.9-1.8-1.6-2.8-2.4c0.5-4.9,1.2-11.5,1.3-23.8c0.1-14.9-1.3-43.4-3.2-67.9
		c-3.9-49.3-7.4-52.8-9.7-55.1c-1.6-1.6-3.7-2.5-6-2.5c-8.4,0.1-10,10.1-11.7,20.7c-1.4,8.3-2.8,20.2-4,34.3
		c-2.3,24.9-4,55.3-4.1,70.7c-0.1,12.4,0.6,19,1.1,23.9c0,0.3,0.1,0.6,0.1,0.8c-5,4.2-8,10.1-8,16.9c-0.1,9.7,4.2,15.4,8,20.3
		c3.7,4.9,6.9,9.1,7.5,18.5c0.4,6.3,5,9.2,9.1,9.2c0,0,0,0,0,0c7.8,0,15.2-10.5,18.9-16.7c3.6-6,9.7-18.2,9.8-31.6
		C235.3,171,233.2,165.7,229.1,161.6z M203.8,135.7c0.1-17.9,2.2-51.3,4.8-77.4c2.3,26,4.1,59.2,4,77c0,8.9-0.4,14.6-0.8,18.8
		c-0.9-0.1-3.1-0.1-3.1-0.1c-1.4,0-2.8,0.1-4.2,0.3C204.1,150.1,203.8,144.5,203.8,135.7z M210.6,204.2c-2.2-7.2-5.8-11.9-8.6-15.6
		c-3.4-4.4-5-6.8-5-11.2c0-6.1,6.4-8.3,11.8-8.4l0.2,0c4,0,7.5,1.1,9.4,3.1c1.2,1.3,1.8,2.8,1.8,4.8
		C220.2,186.9,215.1,197.6,210.6,204.2z"/>
	<path class="st0" d="M150.8,148.9c-0.3-0.1-5.3-1.3-6.2-2.2c-2.6-2.6-2.7-7.6,0-10.3L157,124c22.5-22.5,22.4-57.7,0-80.1
		c-15.1-15.1-35.7-23.4-58-23.4c-25.7,0-51.4,11-70.7,30.3C10,69,0,93.1,0,118.7c0,25.5,10,49.6,28.3,67.8
		c18.2,18.2,42.3,28.3,67.8,28.3c25.5,0,49.6-10,67.9-28.3c4-4,6.4-9.8,6.4-15.7c0-5.9-2.3-11.7-6.4-15.7
		C160,151.2,151.1,149,150.8,148.9z M24.1,98.5c0-5.5,2.2-10.9,6-14.7c3.8-3.8,9.1-6,14.7-6c5.5,0,10.9,2.2,14.7,6
		c3.8,3.8,6,9.1,6,14.7c0,5.5-2.2,10.9-6,14.7c-3.8,3.8-9.1,5.9-14.7,5.9c-5.5,0-10.9-2.2-14.7-5.9C26.2,109.4,24.1,104.1,24.1,98.5
		z M65.6,157c-3.8,3.8-9.1,5.9-14.7,5.9c-5.5,0-10.9-2.2-14.7-6c-8-8-8-21.4,0-29.4c3.8-3.8,9.1-5.9,14.7-5.9c5.5,0,10.9,2.2,14.7,6
		c3.8,3.8,6,9.1,6,14.7C71.6,147.8,69.4,153.2,65.6,157z M90.6,81.9c-3.8,3.8-9.1,5.9-14.7,5.9c-5.5,0-10.9-2.2-14.7-6
		c-3.8-3.8-6-9.1-6-14.7c0-5.6,2.2-10.9,6-14.7c3.8-3.8,9.1-5.9,14.7-5.9c5.5,0,10.9,2.2,14.7,6c3.8,3.8,6,9.1,6,14.7
		C96.6,72.8,94.4,78.1,90.6,81.9z M134.5,88.2c-3.8,3.8-9.2,6-14.7,6c-5.5,0-10.9-2.2-14.7-5.9c-8-8-7.9-21.4,0-29.4
		c3.8-3.8,9.1-5.9,14.7-5.9c5.6,0,10.9,2.2,14.7,5.9C142.4,66.7,142.4,80.2,134.5,88.2z"/>
</g>
</svg>
