<?xml version="1.0" encoding="utf-8"?>
<!-- Generator: Adobe Illustrator 21.1.0, SVG Export Plug-In . SVG Version: 6.00 Build 0)  -->
<svg version="1.1" id="Layer_1" xmlns="http://www.w3.org/2000/svg" xmlns:xlink="http://www.w3.org/1999/xlink" x="0px" y="0px"
	 viewBox="0 0 512 512" style="enable-background:new 0 0 512 512;" xml:space="preserve">
<style type="text/css">
	.st0{fill:#EEEEEE;}
</style>
<g>
	<g>
		<path class="st0" d="M165.4,3.6c-23.7,0-43,19.3-43,43c0,23.7,19.3,43,43,43c23.7,0,43-19.3,43-43C208.4,22.9,189.1,3.6,165.4,3.6
			z M165.4,69.6c-12.7,0-23-10.3-23-23s10.3-23,23-23s23,10.3,23,23S178.1,69.6,165.4,69.6z"/>
	</g>
</g>
<g>
	<g>
		<path class="st0" d="M360.2,3.6c-23.7,0-43,19.3-43,43c0,23.7,19.3,43,43,43c23.7,0,43-19.3,43-43C403.2,22.9,383.9,3.6,360.2,3.6
			z M360.2,69.6c-12.7,0-23-10.3-23-23s10.3-23,23-23s23,10.3,23,23S372.9,69.6,360.2,69.6z"/>
	</g>
</g>
<g>
	<g>
		<path class="st0" d="M502,488.4h-51.3l-0.5-214.2c0-5.5-4.5-10-10-10c0,0,0,0,0,0c-5.5,0-10,4.5-10,10l0.5,214.2h-62.1l-0.5-234
			c0-0.6-0.1-1.2-0.2-1.8v-11.3c0-9.9-1.5-19.6-4.4-29c10.6-5.9,22.5-8.9,34.9-9c0.1,0,0.1,0,0.2,0c18.9,0,36.7,7.1,50,20
			c13.3,12.9,20.7,30,20.7,48.2l0.2,44.7c0,5.5,4.5,10,10,10c0,0,0,0,0,0c5.5,0,10-4.5,10-10l-0.2-44.6c0-23.7-9.6-45.9-26.8-62.5
			c-9.4-9-20.4-15.8-32.4-20.2c8.7-9,13.4-20.7,13.4-33.2c-0.1-26.2-21.4-47.5-47.6-47.5c0,0-0.1,0-0.1,0
			c-26.3,0.1-47.6,21.5-47.5,47.7c0,12.7,5,24.7,14,33.6c0.3,0.3,0.6,0.6,0.9,0.9c-2.6,1.1-5.1,2.3-7.6,3.6
			c-12.2-21.8-32.1-38-55.7-46c10.1-9.6,16.4-23.1,16.4-38.1c0-29-23.6-52.7-52.7-52.7S211,80.7,211,109.7c0,15.8,7,29.9,18,39.6
			c-21.7,8.3-40.1,23.8-51.6,44.3c-3.5-1.8-7.1-3.4-10.8-4.7c8.3-8.6,13.5-20.3,13.5-33.2c0-26.3-21.4-47.6-47.6-47.6
			s-47.6,21.4-47.6,47.6c0,13.6,5.7,25.8,14.9,34.5c-32.6,13.4-55.6,44.9-55.6,81.4v44.7c0,5.5,4.5,10,10,10s10-4.5,10-10v-44.7
			c0-37.7,31.8-68.3,70.8-68.3c12.2,0,24,3,34.5,8.7c-3,9.4-4.5,19.3-4.5,29.3v78.1v6.9v162.1h-60.3V274.3c0-5.5-4.5-10-10-10
			s-10,4.5-10,10v214.1H10c-5.5,0-10,4.5-10,10s4.5,10,10,10h84.5H502c5.5,0,10-4.5,10-10S507.5,488.4,502,488.4z M395.8,128.1
			C395.9,128.1,395.9,128.1,395.8,128.1c15.3,0,27.6,12.4,27.7,27.6c0,7.4-2.8,14.3-8,19.5c-5.2,5.2-12.1,8.1-19.5,8.1
			c0,0,0,0-0.1,0c-7.4,0-14.3-2.9-19.5-8c-5.2-5.2-8.1-12.1-8.1-19.5C368.3,140.5,380.6,128.1,395.8,128.1z M132.5,183.3
			c-15.2,0-27.6-12.4-27.6-27.6c0-15.2,12.4-27.6,27.6-27.6c15.2,0,27.6,12.4,27.6,27.6C160.1,170.9,147.7,183.3,132.5,183.3z
			 M263.7,77.1c18,0,32.7,14.7,32.7,32.7s-14.7,32.7-32.7,32.7S231,127.8,231,109.7S245.6,77.1,263.7,77.1z M210.6,488.4h-25.8
			V365.2c7.3,5.4,16.2,8.8,25.8,9.6V488.4z M313.7,234.2c-5.5,0-10,4.5-10,10v244.1H275V367.6c0-5.5-4.5-10-10-10s-10,4.5-10,10
			v120.7h-24.3V244.2c0-5.5-4.5-10-10-10s-10,4.5-10,10v110.5c-14.6-2-25.8-14-25.8-28.5v-6.9v-78.1c0-10.2,2-20.2,6-29.6
			c0,0,0,0,0-0.1c12.6-29.9,42.3-49.2,75.6-49.2c33.5,0,63.3,19.4,75.8,49.5c3.9,9.3,5.8,19.2,5.8,29.3v85c0,14-10.5,25.7-24.3,28.3
			V244.2C323.7,238.7,319.2,234.2,313.7,234.2z M323.7,488.4V374.7c9.2-1,17.7-4.5,24.7-9.8l0.2,123.4L323.7,488.4L323.7,488.4z"/>
	</g>
</g>
<g>
	<g>
		<circle class="st0" cx="479.5" cy="355.5" r="10"/>
	</g>
</g>
<g>
	<g>
		<circle class="st0" cx="54.1" cy="355.5" r="10"/>
	</g>
</g>
</svg>
