<?xml version="1.0" encoding="utf-8"?>
<!-- Generator: Adobe Illustrator 21.1.0, SVG Export Plug-In . SVG Version: 6.00 Build 0)  -->
<svg version="1.1" id="Capa_1" xmlns="http://www.w3.org/2000/svg" xmlns:xlink="http://www.w3.org/1999/xlink" x="0px" y="0px"
	 viewBox="0 0 487.4 487.4" style="enable-background:new 0 0 487.4 487.4;" xml:space="preserve">
<style type="text/css">
	.st0{fill:#FFFDFD;}
</style>
<g>
	<path class="st0" d="M36,253.4c1.8,3.1,6.2,3.1,8,0l33.9-58.8c1.8-3.1-0.4-6.9-4-6.9H55.4v-36.3c0-23.5,19.1-42.6,42.6-42.6h44.7
		V78H98c-40.4,0-73.3,32.9-73.3,73.3v36.4H6.1c-3.5,0-5.8,3.8-4,6.9L36,253.4z"/>
	<circle class="st0" cx="159.4" cy="389.6" r="49.5"/>
	<circle class="st0" cx="72.2" cy="389.6" r="16.6"/>
	<circle class="st0" cx="246.6" cy="389.6" r="16.6"/>
	<path class="st0" d="M290,291.8H28.8c-15.1,0-27.4,12.3-27.4,27.4V460c0,15.1,12.3,27.4,27.4,27.4h261.1
		c15.1,0,27.4-12.3,27.4-27.4V319.2C317.4,304.1,305.1,291.8,290,291.8z M289.1,431.3c-15.3,0-27.7,12.4-27.7,27.7
		c0,1.7,0.2,3.4,0.5,5.1H58.5c0.5-2.2,0.8-4.4,0.8-6.8c0-15.3-12.4-27.7-27.7-27.7c-2.4,0-4.7,0.3-6.9,0.9v-85
		c2.2,0.6,4.5,0.9,6.9,0.9c15.3,0,27.7-12.4,27.7-27.7c0-1.2-0.1-2.3-0.2-3.4h202.7c-0.3,1.7-0.5,3.4-0.5,5.1
		c0,15.3,12.4,27.7,27.7,27.7c1.7,0,3.3-0.2,4.9-0.4v84C292.4,431.4,290.8,431.3,289.1,431.3z"/>
	<path class="st0" d="M485.3,292.8L451.4,234c-1.8-3.1-6.2-3.1-8,0l-33.9,58.8c-1.8,3.1,0.4,6.9,4,6.9h18.6V336
		c0,23.5-19.1,42.6-42.6,42.6h-44.8v30.7h44.7c40.4,0,73.3-32.9,73.3-73.3v-36.3h18.6C484.8,299.7,487.1,295.9,485.3,292.8z"/>
	<circle class="st0" cx="328" cy="97.8" r="49.5"/>
	<circle class="st0" cx="240.8" cy="97.8" r="16.6"/>
	<circle class="st0" cx="415.2" cy="97.8" r="16.6"/>
	<path class="st0" d="M197.4,195.6h261.1c15.1,0,27.4-12.3,27.4-27.4V27.3c0-15.1-12.2-27.3-27.3-27.3H197.4
		C182.3,0,170,12.3,170,27.4v140.8C170,183.3,182.3,195.6,197.4,195.6z M193.3,53.6c2.2,0.6,4.5,0.9,6.9,0.9
		c15.3,0,27.7-12.4,27.7-27.7c0-1.2-0.1-2.3-0.2-3.4h202.7c-0.3,1.7-0.5,3.4-0.5,5.1c0,15.3,12.4,27.7,27.7,27.7
		c1.7,0,3.3-0.2,4.9-0.4v84c-1.6-0.3-3.1-0.4-4.8-0.4c-15.3,0-27.7,12.4-27.7,27.7c0,1.7,0.2,3.4,0.5,5.1H227.1
		c0.5-2.2,0.8-4.4,0.8-6.8c0-15.3-12.4-27.7-27.7-27.7c-2.4,0-4.7,0.3-6.9,0.9V53.6z"/>
</g>
</svg>
