<?xml version="1.0" encoding="utf-8"?>
<!-- Generator: Adobe Illustrator 21.1.0, SVG Export Plug-In . SVG Version: 6.00 Build 0)  -->
<svg version="1.1" id="Capa_1" xmlns="http://www.w3.org/2000/svg" xmlns:xlink="http://www.w3.org/1999/xlink" x="0px" y="0px"
	 viewBox="0 0 211.6 211.6" style="enable-background:new 0 0 211.6 211.6;" xml:space="preserve">
<style type="text/css">
	.st0{fill:#FFFFFF;}
</style>
<g>
	<path class="st0" d="M51.4,44.2c0,4.1-3.1,7.4-7,7.4H29.3c-3.9,0-7-3.3-7-7.4l0,0c0-4.1,3.1-7.3,7-7.3h15.1
		C48.3,36.9,51.4,40.2,51.4,44.2L51.4,44.2z M51.4,85.3c0-4.1-3.1-7.4-7-7.4H29.3c-3.9,0-7,3.3-7,7.4l0,0c0,4.1,3.1,7.4,7,7.4h15.1
		C48.3,92.6,51.4,89.3,51.4,85.3L51.4,85.3z M51.4,126.3c0-4.1-3.1-7.4-7-7.4H29.3c-3.9,0-7,3.3-7,7.4l0,0c0,4.1,3.1,7.4,7,7.4h15.1
		C48.3,133.7,51.4,130.4,51.4,126.3L51.4,126.3z M51.4,167.4c0-4.1-3.1-7.3-7-7.3H29.3c-3.9,0-7,3.3-7,7.3l0,0c0,4.1,3.1,7.4,7,7.4
		h15.1C48.3,174.7,51.4,171.4,51.4,167.4L51.4,167.4z M189.3,24.1v163.4c0,4.4-3.6,8-8,8H45c-4.4,0-8-3.6-8-8v-7h7.4
		c6.9,0,12.5-5.9,12.5-13.1c0-7.2-5.6-13.1-12.5-13.1H37v-14.8h7.4c6.9,0,12.5-5.9,12.5-13.1c0-7.2-5.6-13.1-12.5-13.1H37V98.4h7.4
		c6.9,0,12.5-5.9,12.5-13.1s-5.6-13.1-12.5-13.1H37V57.4h7.4c6.9,0,12.5-5.9,12.5-13.1s-5.6-13.1-12.5-13.1H37v-7c0-4.4,3.6-8,8-8
		h136.2C185.7,16.1,189.3,19.7,189.3,24.1z M98.3,84.2c0.2-2.4,1.7-5,3.7-4.7c2.2,0.3,7.6,4.3,9.6,5.3c5.3,2.7,13.9-18.5,9.9-21
		c-3.1-1.9-5.9-4.6-9.3-6c-0.6-0.2-1.2-0.2-1.8-0.4c-13.9-3.1-28.1,8.9-29.5,26.9c-0.6,6.9-0.9,13.8-1,20.7h0c0,0.2,0,0.4,0,0.6
		s0,0.4,0,0.6h0c0.1,6.9,0.4,13.8,1,20.7c1.4,18,15.6,30,29.5,26.9c0.6-0.1,1.2-0.1,1.8-0.4c3.4-1.4,6.2-4,9.3-6
		c4-2.5-4.6-23.7-9.9-21c-2,1-7.4,5-9.6,5.4c-1.9,0.3-3.5-2.3-3.7-4.7c-0.5-6.3-0.1-14.3,0-21h0c0-0.2,0-0.4,0-0.6
		c0-0.2,0-0.4,0-0.6h0C98.2,98.6,97.7,90.5,98.3,84.2z M132.8,123.9c10-10,10-26.2,0-36.2l-5.3,5.3c7.1,7,7.1,18.5,0,25.5
		L132.8,123.9z M142.3,133.3c15.2-15.2,15.2-39.9,0-55l-5.3,5.3c12.3,12.3,12.3,32.2,0,44.5L142.3,133.3z M151.5,69.1l-5.3,5.3
		c17.3,17.3,17.3,45.5,0,62.8l5.3,5.3C171.7,122.3,171.7,89.4,151.5,69.1z"/>
</g>
</svg>
