<?xml version="1.0" encoding="utf-8"?>
<!-- Generator: Adobe Illustrator 21.1.0, SVG Export Plug-In . SVG Version: 6.00 Build 0)  -->
<svg version="1.1" id="Capa_1" xmlns="http://www.w3.org/2000/svg" xmlns:xlink="http://www.w3.org/1999/xlink" x="0px" y="0px"
	 viewBox="0 0 60 60" style="enable-background:new 0 0 60 60;" xml:space="preserve">
<style type="text/css">
	.st0{fill:#EEEEEE;}
</style>
<g>
	<g>
		<g>
			<path class="st0" d="M52,36.1c-2.4,0-7.3,1.3-9.8,2c-0.3-3.5-4.8-4.7-9.5-5.7c-2.1-0.4-3.7-1.2-5.2-1.9c-1.9-0.9-3.7-1.8-6-1.8
				c-2.7,0-5.2,0.6-6.6,0.9c-0.4-1.3-1.4-2.3-2.8-2.6l-10-2c-0.4-0.1-0.7,0-1,0.3c-0.3,0.2-0.4,0.6-0.4,0.9v19.6
				c0,0.7,0.5,1.2,1.2,1.2h7.7c1.5,0,2.8-1,3.3-2.3c2.7,1.3,15.4,7.2,20.8,7.2c4.7,0,14.5-4.8,21-8c1.7-0.8,3.1-1.5,4-1.9
				c0.4-0.2,0.7-0.6,0.7-1.1C59.3,38.1,56.3,36.1,52,36.1z M12.6,30.9l-1.8,12.7c-0.1,0.6-0.6,1-1.2,1H3.1V27.8l8.5,1.7
				C12.2,29.7,12.7,30.3,12.6,30.9z M53.5,41.8c-5.9,2.9-15.7,7.7-19.9,7.7c-4.4,0-16.1-5.2-20.2-7.2c0,0,0,0,0,0l1.4-10.1
				c0.9-0.3,3.6-1,6.6-1c1.8,0,3.2,0.7,5,1.5c1.6,0.8,3.4,1.6,5.8,2.1c5.3,1.1,7.6,2.2,7.6,3.7c0,0.3-0.1,0.5-0.3,0.7
				c-0.8,0.6-3.8,1.6-15.2-1.8c-0.7-0.2-1.3,0.2-1.5,0.8c-0.2,0.6,0.2,1.3,0.8,1.5c5.6,1.7,9.9,2.5,13,2.5c2,0,3.4-0.4,4.4-1.1
				c0.1-0.1,0.1-0.1,0.2-0.2c0.1,0,0.2,0,0.2,0c2.2-0.7,8.3-2.4,10.6-2.4c2,0,4.1,0.6,4.7,1.7C55.9,40.7,54.8,41.2,53.5,41.8z"/>
			<path class="st0" d="M32.4,25.1c1.5,0,2.8-0.7,3.7-1.7l6.2,3.1c-0.1,0.3-0.1,0.7-0.1,1c0,2.7,2.2,4.9,4.9,4.9s4.9-2.2,4.9-4.9
				s-2.2-4.9-4.9-4.9c-1.5,0-2.8,0.7-3.7,1.7l-6.2-3.1c0.1-0.3,0.1-0.7,0.1-1c0-0.4,0-0.7-0.1-1l6.2-3.1c0.9,1,2.2,1.7,3.7,1.7
				c2.7,0,4.9-2.2,4.9-4.9S49.8,8,47.1,8s-4.9,2.2-4.9,4.9c0,0.4,0,0.7,0.1,1L36.1,17c-0.9-1-2.2-1.7-3.7-1.7
				c-2.7,0-4.9,2.2-4.9,4.9S29.7,25.1,32.4,25.1z M47.1,25.1c1.3,0,2.4,1.1,2.4,2.4S48.5,30,47.1,30c-1.3,0-2.4-1.1-2.4-2.4
				C44.7,26.2,45.8,25.1,47.1,25.1z M47.1,10.4c1.3,0,2.4,1.1,2.4,2.4s-1.1,2.4-2.4,2.4c-1.3,0-2.4-1.1-2.4-2.4
				C44.7,11.5,45.8,10.4,47.1,10.4z M32.4,17.8c1.3,0,2.4,1.1,2.4,2.4c0,1.3-1.1,2.4-2.4,2.4c-1.3,0-2.4-1.1-2.4-2.4
				C30,18.9,31.1,17.8,32.4,17.8z"/>
		</g>
	</g>
</g>
</svg>
