<?xml version="1.0" encoding="utf-8"?>
<!-- Generator: Adobe Illustrator 21.1.0, SVG Export Plug-In . SVG Version: 6.00 Build 0)  -->
<svg version="1.1" id="Capa_1" xmlns="http://www.w3.org/2000/svg" xmlns:xlink="http://www.w3.org/1999/xlink" x="0px" y="0px"
	 viewBox="0 0 486.2 486.2" style="enable-background:new 0 0 486.2 486.2;" xml:space="preserve">
<style type="text/css">
	.st0{fill:#EEEEEE;}
</style>
<g>
	<path class="st0" d="M337,68.3h-23.8c-11.2,0-20.5,7.9-22.8,18.5c-18.2,9.1-107.7,51.5-225.5,67c-6.6,0.9-12.3,4.5-16,9.5H28.3
		C15.4,163.3,5,173.8,5,186.6v47.5c0,12.8,10.4,23.3,23.3,23.3H49c3.7,5.1,9.4,8.7,16,9.5c1.2,0.2,2.4,0.3,3.5,0.5L105,398.6
		c2.8,10,12,17,22.4,17h43.4c0,0,0,0,0,0c0,0,0,0,0,0h7.9c4.1,0,7.4-3.3,7.4-7.4s-3.3-7.4-7.4-7.4h-2.3l-33.1-119.2
		c77.9,19,133.3,45.3,147.2,52.3c2.2,10.5,11.6,18.5,22.8,18.5H337c12.8,0,23.3-10.4,23.3-23.3V91.6C360.3,78.8,349.8,68.3,337,68.3
		z M44.6,242.5H28.3c-4.6,0-8.4-3.8-8.4-8.4v-47.5c0-4.6,3.8-8.4,8.4-8.4h16.3V242.5z M161,400.8h-33.6c-3.8,0-7.1-2.5-8.1-6.2
		L84.6,269.7c14.6,2.3,28.7,5.1,42.2,8L161,400.8z M337,337.5h-23.7c-4.6,0-8.4-3.8-8.4-8.4v0c0,0,0,0,0-0.1V154.9
		c0-4.1-3.3-7.4-7.4-7.4s-7.4,3.3-7.4,7.4v162.2c-29.2-13.9-114.4-50.7-223.1-65c-4.3-0.6-7.5-4.1-7.5-8.3v-67
		c0-4.2,3.2-7.8,7.5-8.3c108.7-14.3,193.9-51.1,223.1-65v19.7c0,4.1,3.3,7.4,7.4,7.4s7.4-3.3,7.4-7.4V91.6c0,0,0,0,0,0v0
		c0-4.6,3.8-8.4,8.4-8.4H337c4.6,0,8.4,3.8,8.4,8.4v237.5h0C345.4,333.7,341.6,337.5,337,337.5z"/>
	<path class="st0" d="M471.6,202.9h-79.2c-4.1,0-7.4,3.3-7.4,7.4c0,4.1,3.3,7.4,7.4,7.4h79.2c4.1,0,7.4-3.3,7.4-7.4
		C479,206.2,475.7,202.9,471.6,202.9z"/>
	<path class="st0" d="M439.9,142c1,0,2-0.2,2.9-0.6l7.9-3.4c3.8-1.6,5.5-6,3.9-9.7s-6-5.5-9.7-3.9l-7.9,3.4c-3.8,1.6-5.5,6-3.9,9.7
		C434.3,140.3,437,142,439.9,142z"/>
	<path class="st0" d="M392.4,162.3c1,0,2-0.2,2.9-0.6l23.7-10.2c3.8-1.6,5.5-6,3.9-9.7c-1.6-3.8-6-5.5-9.7-3.9l-23.7,10.2
		c-3.8,1.6-5.5,6-3.9,9.7C386.8,160.7,389.5,162.3,392.4,162.3z"/>
	<path class="st0" d="M450.8,282.7l-7.9-3.4c-3.8-1.6-8.1,0.1-9.7,3.9c-1.6,3.8,0.1,8.1,3.9,9.7l7.9,3.4c1,0.4,1.9,0.6,2.9,0.6
		c2.9,0,5.6-1.7,6.8-4.5C456.3,288.7,454.5,284.3,450.8,282.7z"/>
	<path class="st0" d="M419.1,269.1l-23.7-10.2c-3.8-1.6-8.1,0.1-9.7,3.9c-1.6,3.8,0.1,8.1,3.9,9.7l23.7,10.2c1,0.4,1.9,0.6,2.9,0.6
		c2.9,0,5.6-1.7,6.8-4.5C424.6,275.1,422.8,270.7,419.1,269.1z"/>
</g>
</svg>
