<?xml version="1.0" encoding="utf-8"?>
<!-- Generator: Adobe Illustrator 21.1.0, SVG Export Plug-In . SVG Version: 6.00 Build 0)  -->
<svg version="1.1" id="Capa_1" xmlns="http://www.w3.org/2000/svg" xmlns:xlink="http://www.w3.org/1999/xlink" x="0px" y="0px"
	 viewBox="0 0 428.9 428.9" style="enable-background:new 0 0 428.9 428.9;" xml:space="preserve">
<style type="text/css">
	.st0{fill:#EEEEEE;}
</style>
<g>
	<path class="st0" d="M423.9,214.4C423.9,99,329.9,5,214.4,5S5,99,5,214.4c0,59.2,24.8,112.8,64.4,150.9l-0.2,0.2l6.2,5.5
		c14.6,13,30.8,23.7,48,32c0.7,0.3,1.5,0.7,2.2,1c2.2,1,4.3,2,6.5,3c1.4,0.6,2.7,1.1,4.1,1.7c1.6,0.6,3.2,1.3,4.8,1.9
		c1.7,0.6,3.3,1.2,5,1.8c1.4,0.5,2.8,1,4.1,1.4c1.8,0.6,3.6,1.1,5.4,1.7c1.3,0.4,2.6,0.8,3.9,1.1c1.9,0.5,3.7,1,5.6,1.4
		c1.3,0.3,2.6,0.6,4,0.9c1.9,0.4,3.7,0.8,5.6,1.2c1.4,0.3,2.8,0.5,4.2,0.8c1.8,0.3,3.6,0.6,5.4,0.9c1.6,0.2,3.2,0.4,4.8,0.6
		c1.7,0.2,3.3,0.4,5,0.6c2,0.2,4,0.3,6,0.5c1.3,0.1,2.7,0.2,4,0.3c3.4,0.2,6.8,0.3,10.2,0.3c3.4,0,6.8-0.1,10.1-0.3
		c1.4-0.1,2.7-0.2,4-0.3c2-0.1,3.9-0.3,5.9-0.4c1.7-0.2,3.4-0.4,5.1-0.6c1.6-0.2,3.1-0.4,4.7-0.6c1.9-0.3,3.7-0.6,5.6-0.9
		c1.3-0.2,2.7-0.5,4-0.7c2-0.4,3.9-0.8,5.9-1.2c1.2-0.3,2.4-0.5,3.6-0.8c2-0.5,4-1,6-1.5c1.1-0.3,2.3-0.6,3.4-1c2-0.6,4-1.2,5.9-1.8
		c1.2-0.4,2.3-0.8,3.5-1.2c1.9-0.6,3.8-1.3,5.7-2c1.3-0.5,2.6-1,3.9-1.5c1.7-0.7,3.4-1.3,5-2c1.9-0.8,3.7-1.7,5.5-2.5
		c1.1-0.5,2.2-1,3.2-1.5c17.1-8.3,33.1-18.9,47.6-31.6l6.2-5.5l-0.2-0.2C399,327.6,423.9,273.9,423.9,214.4z M335.1,368.1
		c-3.2,2.5-6.4,4.9-9.7,7.2c-0.9,0.6-1.8,1.2-2.6,1.8c-3.7,2.5-7.5,4.8-11.4,7c-0.9,0.5-1.7,1-2.5,1.5c-4.2,2.3-8.4,4.4-12.7,6.4
		c-0.7,0.3-1.5,0.7-2.2,1c-4.5,2-9.2,3.9-13.8,5.6c-0.3,0.1-0.7,0.2-1,0.3c-9.8,3.4-20,6.1-30.3,7.9c-0.6,0.1-1.2,0.2-1.8,0.3
		c-4.9,0.8-9.8,1.5-14.8,1.9c-0.8,0.1-1.6,0.1-2.4,0.2c-5.1,0.4-10.2,0.7-15.3,0.7c-5.1,0-10.2-0.3-15.3-0.7
		c-0.8-0.1-1.6-0.1-2.4-0.2c-5-0.4-9.9-1.1-14.8-1.9c-0.7-0.1-1.3-0.2-2-0.4c-5.1-0.9-10.1-2-15.1-3.3c0,0-0.1,0-0.1,0
		c-5-1.3-10-2.9-15-4.6c-0.4-0.1-0.8-0.3-1.2-0.4c-4.6-1.7-9.2-3.5-13.6-5.5c-0.9-0.4-1.7-0.8-2.5-1.2c-4.2-2-8.4-4.1-12.5-6.3
		c-1-0.5-1.9-1.1-2.9-1.7c-3.9-2.3-7.8-4.6-11.5-7.1c-0.9-0.6-1.8-1.3-2.7-1.9c-3.2-2.2-6.4-4.6-9.5-7.1c-0.7-0.5-1.4-1.1-2.1-1.6
		c35.9-26.2,78.1-39.9,122.8-39.9c44.9,0,87.3,13.9,123.2,40.3C336.5,367,335.8,367.5,335.1,368.1z M347.9,357.1
		c-38.9-29.3-85-44.9-133.8-44.9c-48.7,0-94.6,15.5-133.4,44.6C42.7,321.1,19,270.5,19,214.4C19,106.7,106.7,19,214.4,19
		s195.5,87.7,195.5,195.5C409.9,270.7,386,321.4,347.9,357.1z"/>
	<path class="st0" d="M214.4,60.9c3.9,0,7-3.1,7-7v-14c0-3.9-3.1-7-7-7s-7,3.1-7,7v14C207.5,57.7,210.6,60.9,214.4,60.9z"/>
	<path class="st0" d="M392.5,207.5h-14c-3.9,0-7,3.1-7,7c0,3.9,3.1,7,7,7h14c3.9,0,7-3.1,7-7C399.5,210.6,396.3,207.5,392.5,207.5z"
		/>
	<path class="st0" d="M57.4,214.4c0-3.9-3.1-7-7-7h-14c-3.9,0-7,3.1-7,7c0,3.9,3.1,7,7,7h14C54.2,221.4,57.4,218.3,57.4,214.4z"/>
	<path class="st0" d="M307,57.7c-3.3-1.9-7.6-0.8-9.5,2.6l-7,12.1c-1.9,3.3-0.8,7.6,2.6,9.5c1.1,0.6,2.3,0.9,3.5,0.9
		c2.4,0,4.8-1.3,6.1-3.5l7-12.1C311.4,63.9,310.3,59.6,307,57.7z"/>
	<path class="st0" d="M372.1,300.9l-12.1-7c-3.3-1.9-7.6-0.8-9.5,2.6c-1.9,3.3-0.8,7.6,2.6,9.5l12.1,7c1.1,0.6,2.3,0.9,3.5,0.9
		c2.4,0,4.8-1.3,6.1-3.5C376.6,307.1,375.5,302.8,372.1,300.9z"/>
	<path class="st0" d="M75.8,129.9l-12.1-7c-3.3-1.9-7.6-0.8-9.5,2.6c-1.9,3.3-0.8,7.6,2.6,9.5l12.1,7c1.1,0.6,2.3,0.9,3.5,0.9
		c2.4,0,4.8-1.3,6.1-3.5C80.3,136.1,79.2,131.8,75.8,129.9z"/>
	<path class="st0" d="M131.4,60c-1.9-3.3-6.2-4.5-9.5-2.6c-3.3,1.9-4.5,6.2-2.6,9.5l7,12.1c1.3,2.2,3.6,3.5,6.1,3.5
		c1.2,0,2.4-0.3,3.5-0.9c3.3-1.9,4.5-6.2,2.6-9.5L131.4,60z"/>
	<path class="st0" d="M354.8,139.6c1.2,0,2.4-0.3,3.5-0.9l12.1-7c3.3-1.9,4.5-6.2,2.6-9.5c-1.9-3.3-6.2-4.5-9.5-2.6l-12.1,7
		c-3.3,1.9-4.5,6.2-2.6,9.5C350,138.4,352.4,139.6,354.8,139.6z"/>
	<path class="st0" d="M67.1,290.7l-12.1,7c-3.3,1.9-4.5,6.2-2.6,9.5c1.3,2.2,3.6,3.5,6.1,3.5c1.2,0,2.4-0.3,3.5-0.9l12.1-7
		c3.3-1.9,4.5-6.2,2.6-9.5C74.7,289.9,70.4,288.7,67.1,290.7z"/>
	<path class="st0" d="M288.5,124.9l-58.6,58.6c-10.7-7-26-5.8-35.2,3.4c-5.3,5.3-8.2,12.3-8.2,19.7c0,7.5,2.9,14.5,8.2,19.7
		c5.3,5.3,12.3,8.2,19.7,8.2s14.5-2.9,19.7-8.2c5.3-5.3,8.2-12.3,8.2-19.7c0-4.5-1.2-8.8-3.2-12.7l59.2-59.2c2.7-2.7,2.7-7.1,0-9.9
		C295.6,122.2,291.2,122.2,288.5,124.9z M224.3,216.5c-5.3,5.3-14.5,5.3-19.7,0c-2.6-2.6-4.1-6.1-4.1-9.9s1.5-7.2,4.1-9.9
		s6.1-4.1,9.9-4.1s7.2,1.5,9.9,4.1s4.1,6.1,4.1,9.9S227,213.9,224.3,216.5z"/>
</g>
</svg>
