<?xml version="1.0" encoding="utf-8"?>
<!-- Generator: Adobe Illustrator 21.1.0, SVG Export Plug-In . SVG Version: 6.00 Build 0)  -->
<svg version="1.1" id="Layer_1" xmlns="http://www.w3.org/2000/svg" xmlns:xlink="http://www.w3.org/1999/xlink" x="0px" y="0px"
	 viewBox="0 0 101.9 30" style="enable-background:new 0 0 101.9 30;" xml:space="preserve">
<style type="text/css">
	.st0{fill:#FFFFFF;}
</style>
<g>
	<rect x="4.7" y="18.5" transform="matrix(0.7071 -0.7071 0.7071 0.7071 -11.6935 9.417)" class="st0" width="1.6" height="0.6"/>
	<rect x="6.3" y="16.9" transform="matrix(0.7071 -0.7071 0.7071 0.7071 -10.1089 10.0665)" class="st0" width="1.6" height="0.6"/>
	<rect x="9.6" y="13.7" transform="matrix(0.7071 -0.7071 0.7071 0.7071 -6.8593 11.4063)" class="st0" width="1.6" height="0.6"/>
	<rect x="7.9" y="15.3" transform="matrix(0.7071 -0.7071 0.7071 0.7071 -8.486 10.7371)" class="st0" width="1.6" height="0.6"/>
	<rect x="11.2" y="12" transform="matrix(0.7071 -0.7071 0.7071 0.7071 -5.2252 12.0757)" class="st0" width="1.6" height="0.6"/>
	<rect x="6.6" y="20.3" transform="matrix(0.7071 -0.7071 0.7071 0.7071 -12.4108 11.2289)" class="st0" width="1.6" height="0.6"/>
	<rect x="8.1" y="18.7" transform="matrix(0.7071 -0.7071 0.7071 0.7071 -10.8321 11.8798)" class="st0" width="1.6" height="0.6"/>
	<rect x="11.4" y="15.4" transform="matrix(0.7071 -0.7071 0.7071 0.7071 -7.5769 13.2179)" class="st0" width="1.6" height="0.6"/>
	<rect x="9.8" y="17.1" transform="matrix(0.7071 -0.7071 0.7071 0.7071 -9.2057 12.5487)" class="st0" width="1.6" height="0.6"/>
	<path class="st0" d="M23.5,6.2c2.2,0,4.5,0.8,6.2,2.5l1.1-0.9c-2-1.9-4.6-2.9-7.2-2.9c-2.7,0-4.9,0.8-6.5,2.1c-1.7-1.3-3.8-2-5.9-2
		C8.4,4.9,5.9,6,4,7.9s-3,4.4-3,7.1c0,2.7,1.1,5.2,3,7.1s4.5,3,7.1,3c2.3,0,4.4-0.8,6.2-2.1c1.6,1.2,3.7,1.9,6.3,1.9s5.2-1,7.1-3
		l-1-0.9c-1.7,1.6-4,2.5-6.2,2.5c-5.7,0-8.6-4-8.6-8.6C14.9,10.3,17.8,6.2,23.5,6.2z M1.6,15.1c0-5.2,4.2-9.5,9.5-9.5
		c1.6,0,3,0.4,4.3,1.1L2.7,19.4C2,18,1.6,16.6,1.6,15.1z M5.7,22.8l0.8-0.8L6,21.4l-0.9,0.9c-0.5-0.4-0.9-0.8-1.3-1.3l0.8-0.8
		l-0.5-0.5l-0.8,0.8C3.3,20.3,3.1,20.2,3,20L16,7c0.2,0.1,0.4,0.2,0.6,0.4c-0.4,0.4-0.7,0.7-1,1.1l-0.1-0.1l-1.1,1.1l0.3,0.3
		c-0.1,0.2-0.3,0.5-0.4,0.7L14,10L12.9,11l0.5,0.5l1-1c-0.5,1.1-0.8,2.3-0.8,3.5L13,14.4l0.4,0.4c0,0.1,0,0.1,0,0.1
		c0,0.3,0,0.6,0.1,0.8l-7.3,7.4C6,23,5.8,22.9,5.7,22.8z M16.7,22.6c-1.6,1.1-3.5,1.9-5.6,1.9c-1.6,0-3-0.4-4.4-1.1l6.8-6.8
		C13.9,19,14.9,21.2,16.7,22.6z"/>
	<path class="st0" d="M34.5,13.3l-0.1-2.5h-1.3v13.9h1.3v-8.1c0-2.5,2-4.6,4.6-4.6c0.8,0,1.6,0.2,2.3,0.6l0.6-1.1
		c-0.9-0.6-1.9-0.8-3-0.8C37.3,10.7,35.3,11.5,34.5,13.3z"/>
	<rect x="44.1" y="10.8" class="st0" width="1.3" height="13.9"/>
	<path class="st0" d="M43.8,6.3c0,1.5,2.2,1.5,2.2,0C45.9,4.9,43.8,4.9,43.8,6.3z"/>
	<path class="st0" d="M55.8,12c1.5,0,3,0.6,4.2,1.6l0.9-0.8c-1.4-1.3-3.3-2.1-5-2.1c-4,0-7.1,2.7-7.1,7.1s3.3,7.1,7.1,7.1
		c1.8,0,3.7-0.7,5-2.1L60,21.9c-1.1,1.1-2.6,1.7-4.1,1.7c-3.1,0-5.8-2.1-5.8-5.8C50,14.1,52.6,12,55.8,12z"/>
	<polygon class="st0" points="73.3,10.9 73.3,10.8 71.5,10.8 65,16.9 65,5.1 63.6,5.1 63.6,24.7 65,24.7 65,17.9 72.4,24.7 
		74.2,24.7 74.2,24.6 66.3,17.4 	"/>
	<path class="st0" d="M82.2,10.6c-3.9,0-7.1,3-7.1,7.1c0,4.4,3.1,7.1,7.1,7.1c2.2,0,4.6-0.9,6-2.7l-1-0.8c-1.1,1.3-3.2,2.1-5,2.1
		c-2.8,0-5.4-1.9-5.7-5.2h12.5C89.6,13,86.1,10.6,82.2,10.6z M76.5,17.2c0.3-3.4,2.8-5.3,5.7-5.3c3.3,0,5.6,1.9,5.6,5.3H76.5z"/>
	<path class="st0" d="M99.9,23.1c-0.7,0.4-1.5,0.6-2.1,0.6c-2.2,0-2.5-1.3-2.5-3.2V12h4.7v-1.2h-4.7V6.6l-1.3,0.1v4h-3V12h3v8.4
		c0,2.7,0.9,4.5,3.9,4.5c0.8,0,1.8-0.3,2.6-0.7L99.9,23.1z"/>
</g>
</svg>
